<svg width="36" height="36" viewBox="0 0 36 36" fill="none" xmlns="http://www.w3.org/2000/svg">
<path d="M20.3909 25.0269C20.7061 24.8031 21.1436 24.8767 21.3674 25.1919C21.5911 25.5071 21.5165 25.9437 21.2014 26.1675L20.7405 26.4956L20.7395 26.4946C19.2457 27.5554 17.284 27.6482 15.7063 26.7593L15.3958 26.5688L14.8137 26.1792L14.7043 26.0884C14.4759 25.8568 14.4335 25.4885 14.6213 25.2075C14.8096 24.9265 15.1667 24.8255 15.468 24.9487L15.593 25.0151L16.175 25.4058L16.3928 25.5396C17.5014 26.1642 18.8804 26.0994 19.9299 25.354L20.3909 25.0269ZM18.2385 8.63525C18.4255 8.63616 18.6854 8.65153 19.0042 8.70459C19.6432 8.81101 20.5129 9.06956 21.5032 9.66357L21.679 9.77588C22.5377 10.3612 23.0977 11.2746 23.4377 11.9897C23.6242 12.382 23.7566 12.741 23.843 13.0024C23.8864 13.1336 23.919 13.2422 23.9407 13.3188C23.9514 13.3569 23.9594 13.3878 23.9651 13.4097C23.9679 13.4205 23.9703 13.4296 23.9719 13.436C23.9727 13.4391 23.9734 13.4418 23.9739 13.4438C23.9741 13.4448 23.9747 13.4461 23.9749 13.4468V13.4478L23.9905 13.5308C23.9938 13.5582 23.9953 13.586 23.9954 13.6138V18.3394L25.9163 22.0181C26.0296 22.235 26.0216 22.4952 25.8948 22.7046C25.7679 22.9139 25.5409 23.0425 25.2961 23.0425H10.7024C10.4576 23.0424 10.2306 22.914 10.1038 22.7046C9.97701 22.4952 9.96897 22.235 10.0823 22.0181L12.0051 18.3364V13.6138C12.0052 13.5579 12.0114 13.502 12.0247 13.4478L12.7053 13.6138C12.0852 13.462 12.0304 13.4491 12.0256 13.4478V13.4458L12.0266 13.4429C12.0271 13.4409 12.0278 13.438 12.0286 13.4351C12.0302 13.4286 12.0326 13.4195 12.0354 13.4087C12.0412 13.3868 12.049 13.356 12.0598 13.3179C12.0815 13.2413 12.1141 13.1335 12.1575 13.0024C12.244 12.741 12.3771 12.3821 12.5637 11.9897C12.9265 11.2272 13.5385 10.2388 14.4963 9.66357L14.8625 9.45557C15.7011 9.0069 16.4372 8.7977 16.9963 8.70459C17.3149 8.65156 17.575 8.63617 17.762 8.63525C17.8551 8.63481 17.9302 8.63843 17.9856 8.64209C17.9902 8.64239 17.9949 8.64372 17.9993 8.64404C18.004 8.6437 18.0089 8.64244 18.0139 8.64209C18.0694 8.63842 18.1451 8.63481 18.2385 8.63525ZM18.1067 10.0386L18.0872 10.0396H18.0881C18.0294 10.047 17.9701 10.0471 17.9114 10.0396H17.9124C17.9086 10.0392 17.9023 10.0391 17.8938 10.0386C17.8698 10.037 17.8267 10.0354 17.7678 10.0356C17.6498 10.0362 17.465 10.0456 17.2258 10.0854C16.808 10.155 16.2185 10.3179 15.5217 10.6909L15.217 10.8638C14.614 11.2259 14.1501 11.913 13.8274 12.5913C13.6714 12.9193 13.5595 13.2226 13.4866 13.4429C13.4503 13.5524 13.4242 13.6407 13.4075 13.6997C13.4068 13.702 13.4061 13.7043 13.4055 13.7065V18.5093C13.4055 18.5939 13.3893 18.6776 13.3596 18.7563L13.3254 18.8335L11.8577 21.6421H24.1409L22.6731 18.8335C22.6148 18.7219 22.5893 18.5988 22.595 18.4771V13.7056C22.5944 13.7034 22.5936 13.701 22.593 13.6987C22.5763 13.6397 22.5501 13.5515 22.5139 13.4419C22.4411 13.2217 22.3289 12.9191 22.1731 12.5913C21.8707 11.9554 21.4444 11.3113 20.8948 10.9351L20.7834 10.8638C19.9536 10.366 19.2512 10.165 18.7737 10.0854C18.5344 10.0456 18.3496 10.0362 18.2317 10.0356C18.1729 10.0354 18.1306 10.037 18.1067 10.0386Z" fill="#2F3439"/>
<path d="M20.3909 25.0269L20.6803 25.4346L20.6803 25.4346L20.3909 25.0269ZM21.3674 25.1919L21.7752 24.9025L21.7751 24.9024L21.3674 25.1919ZM21.2014 26.1675L20.9119 25.7598L20.9115 25.7601L21.2014 26.1675ZM20.7405 26.4956L20.3869 26.8492C20.5595 27.0218 20.8316 27.0445 21.0304 26.9029L20.7405 26.4956ZM20.7395 26.4946L21.0931 26.1411C20.9206 25.9686 20.6489 25.9457 20.45 26.087L20.7395 26.4946ZM15.7063 26.7593L15.4449 27.1855C15.4502 27.1887 15.4555 27.1919 15.4609 27.1949L15.7063 26.7593ZM15.3958 26.5688L15.1176 26.9843C15.1231 26.988 15.1287 26.9916 15.1344 26.9951L15.3958 26.5688ZM14.8137 26.1792L14.4943 26.5639C14.5075 26.5748 14.5213 26.5851 14.5356 26.5947L14.8137 26.1792ZM14.7043 26.0884L14.3484 26.4395C14.36 26.4513 14.3722 26.4625 14.3849 26.4731L14.7043 26.0884ZM14.6213 25.2075L14.2059 24.9293L14.2057 24.9296L14.6213 25.2075ZM15.468 24.9487L15.7026 24.5072C15.6879 24.4993 15.6728 24.4923 15.6573 24.486L15.468 24.9487ZM15.593 25.0151L15.8717 24.6C15.8574 24.5904 15.8427 24.5816 15.8276 24.5736L15.593 25.0151ZM16.175 25.4058L15.8964 25.8209C15.902 25.8247 15.9076 25.8283 15.9133 25.8318L16.175 25.4058ZM16.3928 25.5396L16.1311 25.9656C16.1365 25.9689 16.1419 25.9721 16.1474 25.9752L16.3928 25.5396ZM19.9299 25.354L19.6405 24.9463L19.6404 24.9464L19.9299 25.354ZM18.2385 8.63525L18.241 8.13526L18.2409 8.13526L18.2385 8.63525ZM19.0042 8.70459L19.0863 8.21138L19.0863 8.21138L19.0042 8.70459ZM21.5032 9.66357L21.7725 9.24206L21.7604 9.2348L21.5032 9.66357ZM21.679 9.77588L21.9606 9.36273C21.9565 9.35993 21.9523 9.3572 21.9481 9.35453L21.679 9.77588ZM23.4377 11.9897L23.8893 11.7751L23.8893 11.775L23.4377 11.9897ZM23.843 13.0024L24.3177 12.8455L24.3177 12.8455L23.843 13.0024ZM23.9407 13.3188L24.4219 13.183L24.4218 13.1829L23.9407 13.3188ZM23.9651 13.4097L24.4487 13.2829L24.4487 13.2828L23.9651 13.4097ZM23.9719 13.436L24.4567 13.3135L24.4567 13.3134L23.9719 13.436ZM23.9739 13.4438L23.4886 13.5644L23.4894 13.5676L23.9739 13.4438ZM23.9749 13.4468H24.4749C24.4749 13.4065 24.47 13.3663 24.4603 13.3272L23.9749 13.4468ZM23.9749 13.4478H23.4749C23.4749 13.4788 23.4777 13.5098 23.4835 13.5402L23.9749 13.4478ZM23.9905 13.5308L24.4869 13.4712C24.4856 13.4602 24.4839 13.4492 24.4818 13.4383L23.9905 13.5308ZM23.9954 13.6138H24.4954V13.6135L23.9954 13.6138ZM23.9954 18.3394H23.4954C23.4954 18.4199 23.5148 18.4993 23.5521 18.5708L23.9954 18.3394ZM25.9163 22.0181L25.473 22.2495L25.4731 22.2496L25.9163 22.0181ZM25.8948 22.7046L26.3224 22.9637L26.3225 22.9636L25.8948 22.7046ZM10.7024 23.0425L10.7023 23.5425H10.7024V23.0425ZM10.1038 22.7046L9.67604 22.9635L9.67611 22.9637L10.1038 22.7046ZM10.0823 22.0181L10.5255 22.2496L10.5255 22.2495L10.0823 22.0181ZM12.0051 18.3364L12.4483 18.5679C12.4856 18.4964 12.5051 18.417 12.5051 18.3364H12.0051ZM12.0051 13.6138L11.5051 13.6135V13.6138H12.0051ZM12.0247 13.4478L12.1431 12.962C11.875 12.8966 11.6045 13.0609 11.539 13.329L12.0247 13.4478ZM12.7053 13.6138L12.5868 14.0995C12.8551 14.1649 13.1255 14.0006 13.191 13.7324C13.2566 13.4642 13.0923 13.1937 12.8241 13.1281L12.7053 13.6138ZM12.0256 13.4478H11.5256C11.5256 13.6714 11.6742 13.8679 11.8894 13.9288L12.0256 13.4478ZM12.0256 13.4458L11.5513 13.2877C11.5343 13.3387 11.5256 13.3921 11.5256 13.4458H12.0256ZM12.0266 13.4429L12.501 13.601C12.505 13.5887 12.5086 13.5764 12.5118 13.5638L12.0266 13.4429ZM12.0286 13.4351L11.5439 13.3121L11.5439 13.3122L12.0286 13.4351ZM12.0354 13.4087L11.5518 13.2816L11.5518 13.2816L12.0354 13.4087ZM12.0598 13.3179L11.5787 13.1817L11.5787 13.1817L12.0598 13.3179ZM12.1575 13.0024L11.6828 12.8453L11.6828 12.8453L12.1575 13.0024ZM12.5637 11.9897L12.1122 11.775L12.1122 11.775L12.5637 11.9897ZM14.4963 9.66357L14.2493 9.22868L14.2389 9.23492L14.4963 9.66357ZM14.8625 9.45557L14.6266 9.01457L14.6156 9.0208L14.8625 9.45557ZM16.9963 8.70459L16.9142 8.21138L16.9142 8.21138L16.9963 8.70459ZM17.762 8.63525L17.7596 8.13526L17.7595 8.13526L17.762 8.63525ZM17.9856 8.64209L18.0186 8.14318L18.0185 8.14318L17.9856 8.64209ZM17.9993 8.64404L17.962 9.14265C17.9864 9.14448 18.011 9.14451 18.0354 9.14273L17.9993 8.64404ZM18.0139 8.64209L17.9809 8.14318L17.9797 8.14326L18.0139 8.64209ZM18.1067 10.0386L18.1317 10.538L18.1397 10.5375L18.1067 10.0386ZM18.0872 10.0396L18.0622 9.54017C17.7913 9.55372 17.5805 9.78085 17.5873 10.052C17.5941 10.3232 17.8159 10.5396 18.0872 10.5396V10.0396ZM18.0881 10.0396L18.151 10.5356C18.4128 10.5024 18.6038 10.2714 18.5871 10.008C18.5705 9.74466 18.352 9.53955 18.0881 9.53955V10.0396ZM17.9114 10.0396V9.53955C17.6476 9.53955 17.4291 9.74452 17.4124 10.0078C17.3956 10.2711 17.5863 10.5021 17.848 10.5355L17.9114 10.0396ZM17.9124 10.0396V10.5396C18.1799 10.5396 18.4 10.3289 18.4119 10.0617C18.4237 9.79438 18.223 9.56514 17.9565 9.54151L17.9124 10.0396ZM17.8938 10.0386L17.9269 9.53967L17.9267 9.53966L17.8938 10.0386ZM17.7678 10.0356L17.7654 9.53565L17.7653 9.53565L17.7678 10.0356ZM17.2258 10.0854L17.1437 9.59224L17.1437 9.59224L17.2258 10.0854ZM15.5217 10.6909L15.2857 10.25L15.275 10.256L15.5217 10.6909ZM15.217 10.8638L14.9702 10.4287L14.9596 10.4351L15.217 10.8638ZM13.8274 12.5913L13.3759 12.3765L13.3759 12.3765L13.8274 12.5913ZM13.4866 13.4429L13.0119 13.2857L13.0119 13.2858L13.4866 13.4429ZM13.4075 13.6997L13.8886 13.8359L13.8886 13.8359L13.4075 13.6997ZM13.4055 13.7065L12.9242 13.5712C12.9118 13.6152 12.9055 13.6608 12.9055 13.7065H13.4055ZM13.4055 18.5093L13.9055 18.5093V18.5093H13.4055ZM13.3596 18.7563L13.8168 18.9589C13.8206 18.9503 13.8241 18.9416 13.8275 18.9328L13.3596 18.7563ZM13.3254 18.8335L13.7686 19.0651C13.7736 19.0555 13.7782 19.0459 13.7826 19.036L13.3254 18.8335ZM11.8577 21.6421L11.4145 21.4105C11.3335 21.5655 11.3394 21.7516 11.43 21.9011C11.5206 22.0507 11.6828 22.1421 11.8577 22.1421V21.6421ZM24.1409 21.6421V22.1421C24.3158 22.1421 24.4779 22.0507 24.5685 21.9011C24.6591 21.7516 24.665 21.5655 24.584 21.4105L24.1409 21.6421ZM22.6731 18.8335L22.2299 19.0649L22.23 19.0651L22.6731 18.8335ZM22.595 18.4771L23.0944 18.5002C23.0948 18.4925 23.095 18.4848 23.095 18.4771H22.595ZM22.595 13.7056H23.095C23.095 13.6599 23.0887 13.6144 23.0763 13.5704L22.595 13.7056ZM22.593 13.6987L22.1119 13.8347L22.1119 13.8347L22.593 13.6987ZM22.5139 13.4419L22.9886 13.285L22.9886 13.2849L22.5139 13.4419ZM22.1731 12.5913L22.6247 12.3766L22.6247 12.3766L22.1731 12.5913ZM20.8948 10.9351L21.1772 10.5225C21.173 10.5196 21.1687 10.5168 21.1644 10.514L20.8948 10.9351ZM20.7834 10.8638L21.0531 10.4427C21.049 10.4401 21.0448 10.4375 21.0406 10.435L20.7834 10.8638ZM18.7737 10.0854L18.8558 9.59224L18.8557 9.59223L18.7737 10.0854ZM18.2317 10.0356L18.2341 9.53565L18.2341 9.53565L18.2317 10.0356ZM20.3909 25.0269L20.6803 25.4346C20.771 25.3702 20.8962 25.3919 20.9597 25.4813L21.3674 25.1919L21.7751 24.9024C21.391 24.3614 20.6412 24.2359 20.1014 24.6192L20.3909 25.0269ZM21.3674 25.1919L20.9597 25.4812C21.0232 25.5708 21.0025 25.6955 20.9119 25.7598L21.2014 26.1675L21.4909 26.5751C22.0306 26.1919 22.159 25.4434 21.7752 24.9025L21.3674 25.1919ZM21.2014 26.1675L20.9115 25.7601L20.4505 26.0883L20.7405 26.4956L21.0304 26.9029L21.4914 26.5748L21.2014 26.1675ZM20.7405 26.4956L21.094 26.1421L21.0931 26.1411L20.7395 26.4946L20.3859 26.8482L20.3869 26.8492L20.7405 26.4956ZM20.7395 26.4946L20.45 26.087C19.1148 27.0351 17.3615 27.1179 15.9517 26.3237L15.7063 26.7593L15.4609 27.1949C17.2065 28.1784 19.3766 28.0756 21.029 26.9023L20.7395 26.4946ZM15.7063 26.7593L15.9677 26.333L15.6571 26.1426L15.3958 26.5688L15.1344 26.9951L15.4449 27.1855L15.7063 26.7593ZM15.3958 26.5688L15.6739 26.1534L15.0919 25.7637L14.8137 26.1792L14.5356 26.5947L15.1176 26.9843L15.3958 26.5688ZM14.8137 26.1792L15.1331 25.7945L15.0238 25.7037L14.7043 26.0884L14.3849 26.4731L14.4943 26.5639L14.8137 26.1792ZM14.7043 26.0884L15.0603 25.7373C14.9952 25.6712 14.9836 25.5652 15.037 25.4855L14.6213 25.2075L14.2057 24.9296C13.8833 25.4117 13.9566 26.0423 14.3484 26.4395L14.7043 26.0884ZM14.6213 25.2075L15.0368 25.4858C15.0901 25.4061 15.1926 25.3763 15.2787 25.4115L15.468 24.9487L15.6573 24.486C15.1407 24.2746 14.5291 24.4468 14.2059 24.9293L14.6213 25.2075ZM15.468 24.9487L15.2334 25.3903L15.3584 25.4567L15.593 25.0151L15.8276 24.5736L15.7026 24.5072L15.468 24.9487ZM15.593 25.0151L15.3144 25.4303L15.8964 25.8209L16.175 25.4058L16.4537 24.9906L15.8717 24.6L15.593 25.0151ZM16.175 25.4058L15.9133 25.8318L16.1311 25.9656L16.3928 25.5396L16.6546 25.1135L16.4368 24.9797L16.175 25.4058ZM16.3928 25.5396L16.1474 25.9752C17.4238 26.6943 19.0112 26.6198 20.2195 25.7617L19.9299 25.354L19.6404 24.9464C18.7496 25.579 17.5791 25.6341 16.6383 25.1039L16.3928 25.5396ZM19.9299 25.354L20.2193 25.7617L20.6803 25.4346L20.3909 25.0269L20.1015 24.6191L19.6405 24.9463L19.9299 25.354ZM18.2385 8.63525L18.2361 9.13525C18.3981 9.13603 18.6313 9.14939 18.922 9.1978L19.0042 8.70459L19.0863 8.21138C18.7396 8.15366 18.4529 8.13629 18.241 8.13526L18.2385 8.63525ZM19.0042 8.70459L18.922 9.1978C19.5032 9.29458 20.3128 9.53261 21.246 10.0924L21.5032 9.66357L21.7604 9.2348C20.7129 8.6065 19.7833 8.32745 19.0863 8.21138L19.0042 8.70459ZM21.5032 9.66357L21.234 10.0849L21.4098 10.1972L21.679 9.77588L21.9481 9.35453L21.7724 9.24223L21.5032 9.66357ZM21.679 9.77588L21.3973 10.189C22.148 10.7007 22.6607 11.52 22.9862 12.2045L23.4377 11.9897L23.8893 11.775C23.5347 11.0292 22.9274 10.0217 21.9606 9.36273L21.679 9.77588ZM23.4377 11.9897L22.9862 12.2044C23.1616 12.5734 23.2866 12.9123 23.3683 13.1594L23.843 13.0024L24.3177 12.8455C24.2266 12.5698 24.0868 12.1905 23.8893 11.7751L23.4377 11.9897ZM23.843 13.0024L23.3683 13.1594C23.4094 13.2837 23.4399 13.3853 23.4595 13.4548L23.9407 13.3188L24.4218 13.1829C24.3982 13.0991 24.3634 12.9835 24.3177 12.8455L23.843 13.0024ZM23.9407 13.3188L23.4595 13.4547C23.4686 13.4872 23.4751 13.5125 23.4814 13.5365L23.9651 13.4097L24.4487 13.2828C24.4436 13.2632 24.4342 13.2267 24.4219 13.183L23.9407 13.3188ZM23.9651 13.4097L23.4814 13.5365C23.4843 13.5473 23.4861 13.5545 23.4872 13.5586L23.9719 13.436L24.4567 13.3134C24.4544 13.3046 24.4516 13.2936 24.4487 13.2829L23.9651 13.4097ZM23.9719 13.436L23.4872 13.5585C23.4876 13.5605 23.4881 13.5622 23.4886 13.5644L23.9739 13.4438L24.4591 13.3233C24.4587 13.3215 24.4577 13.3177 24.4567 13.3135L23.9719 13.436ZM23.9739 13.4438L23.4894 13.5676C23.4917 13.5766 23.494 13.5843 23.4957 13.5901C23.4976 13.5961 23.4992 13.601 23.5005 13.6048C23.5017 13.6085 23.5028 13.6116 23.5035 13.6136C23.5042 13.6155 23.5048 13.6171 23.5049 13.6175C23.5053 13.6184 23.5049 13.6173 23.5046 13.6165C23.5042 13.6155 23.5033 13.6131 23.5022 13.6099C23.5011 13.6068 23.4994 13.6016 23.4974 13.5951C23.4954 13.5888 23.4924 13.5788 23.4894 13.5663L23.9749 13.4468L24.4603 13.3272C24.4572 13.3146 24.4542 13.3044 24.4522 13.2979C24.4501 13.2912 24.4483 13.2858 24.4471 13.2824C24.4459 13.279 24.4449 13.2763 24.4445 13.2751C24.4441 13.274 24.4436 13.2727 24.4439 13.2733C24.4439 13.2735 24.4444 13.2748 24.445 13.2765C24.4456 13.2782 24.4466 13.281 24.4478 13.2845C24.4489 13.2879 24.4505 13.2927 24.4522 13.2983C24.4539 13.3039 24.4561 13.3113 24.4583 13.3201L23.9739 13.4438ZM23.9749 13.4468H23.4749V13.4478H23.9749H24.4749V13.4468H23.9749ZM23.9749 13.4478L23.4835 13.5402L23.4991 13.6233L23.9905 13.5308L24.4818 13.4383L24.4662 13.3553L23.9749 13.4478ZM23.9905 13.5308L23.494 13.5903C23.4948 13.5969 23.4954 13.6049 23.4954 13.6141L23.9954 13.6138L24.4954 13.6135C24.4953 13.5672 24.4927 13.5196 24.4869 13.4712L23.9905 13.5308ZM23.9954 13.6138H23.4954V18.3394H23.9954H24.4954V13.6138H23.9954ZM23.9954 18.3394L23.5521 18.5708L25.473 22.2495L25.9163 22.0181L26.3595 21.7866L24.4386 18.1079L23.9954 18.3394ZM25.9163 22.0181L25.4731 22.2496C25.5056 22.3118 25.5032 22.386 25.4671 22.4456L25.8948 22.7046L26.3225 22.9636C26.54 22.6044 26.5536 22.1582 26.3594 21.7865L25.9163 22.0181ZM25.8948 22.7046L25.4672 22.4455C25.4304 22.5061 25.3651 22.5425 25.2961 22.5425V23.0425V23.5425C25.7167 23.5425 26.1054 23.3218 26.3224 22.9637L25.8948 22.7046ZM25.2961 23.0425V22.5425H10.7024V23.0425V23.5425H25.2961V23.0425ZM10.7024 23.0425L10.7025 22.5425C10.6333 22.5425 10.5681 22.506 10.5314 22.4455L10.1038 22.7046L9.67611 22.9637C9.89312 23.3219 10.2819 23.5424 10.7023 23.5425L10.7024 23.0425ZM10.1038 22.7046L10.5315 22.4456C10.4954 22.386 10.493 22.3118 10.5255 22.2496L10.0823 22.0181L9.63909 21.7866C9.44497 22.1582 9.45862 22.6044 9.67604 22.9635L10.1038 22.7046ZM10.0823 22.0181L10.5255 22.2495L12.4483 18.5679L12.0051 18.3364L11.5619 18.105L9.63908 21.7866L10.0823 22.0181ZM12.0051 18.3364H12.5051V13.6138H12.0051H11.5051V18.3364H12.0051ZM12.0051 13.6138L12.5051 13.6141C12.5051 13.5949 12.5073 13.579 12.5104 13.5665L12.0247 13.4478L11.539 13.329C11.5155 13.425 11.5052 13.5208 11.5051 13.6135L12.0051 13.6138ZM12.0247 13.4478L11.9062 13.9335L12.5868 14.0995L12.7053 13.6138L12.8238 13.128L12.1431 12.962L12.0247 13.4478ZM12.7053 13.6138L12.8241 13.1281C12.1911 12.9732 12.1551 12.9647 12.1618 12.9667L12.0256 13.4478L11.8894 13.9288C11.9057 13.9334 11.9792 13.9509 12.5865 14.0994L12.7053 13.6138ZM12.0256 13.4478H12.5256V13.4458H12.0256H11.5256V13.4478H12.0256ZM12.0256 13.4458L12.5 13.6039L12.501 13.601L12.0266 13.4429L11.5523 13.2848L11.5513 13.2877L12.0256 13.4458ZM12.0266 13.4429L12.5118 13.5638C12.5126 13.5604 12.5128 13.5596 12.5132 13.5579L12.0286 13.4351L11.5439 13.3122C11.5428 13.3164 11.5416 13.3213 11.5415 13.3219L12.0266 13.4429ZM12.0286 13.4351L12.5132 13.558C12.5144 13.5534 12.5163 13.5459 12.519 13.5358L12.0354 13.4087L11.5518 13.2816C11.5488 13.2931 11.546 13.3037 11.5439 13.3121L12.0286 13.4351ZM12.0354 13.4087L12.519 13.5358C12.5256 13.5108 12.5318 13.4863 12.5409 13.454L12.0598 13.3179L11.5787 13.1817C11.5663 13.2256 11.5568 13.2628 11.5518 13.2816L12.0354 13.4087ZM12.0598 13.3179L12.5409 13.454C12.5605 13.385 12.5909 13.2842 12.6321 13.1596L12.1575 13.0024L11.6828 12.8453C11.6373 12.9828 11.6025 13.0976 11.5787 13.1817L12.0598 13.3179ZM12.1575 13.0024L12.6321 13.1596C12.7138 12.913 12.8395 12.574 13.0152 12.2045L12.5637 11.9897L12.1122 11.775C11.9147 12.1901 11.7743 12.5691 11.6828 12.8453L12.1575 13.0024ZM12.5637 11.9897L13.0152 12.2045C13.3637 11.4721 13.9226 10.5913 14.7537 10.0922L14.4963 9.66357L14.2389 9.23492C13.1544 9.8862 12.4893 10.9823 12.1122 11.775L12.5637 11.9897ZM14.4963 9.66357L14.7433 10.0983L15.1095 9.89033L14.8625 9.45557L14.6156 9.0208L14.2494 9.22881L14.4963 9.66357ZM14.8625 9.45557L15.0984 9.89642C15.8858 9.47513 16.5695 9.28255 17.0785 9.1978L16.9963 8.70459L16.9142 8.21138C16.3049 8.31285 15.5163 8.53866 14.6267 9.01471L14.8625 9.45557ZM16.9963 8.70459L17.0784 9.1978C17.369 9.14943 17.6025 9.13604 17.7644 9.13525L17.762 8.63525L17.7595 8.13526C17.5476 8.13629 17.2607 8.1537 16.9142 8.21138L16.9963 8.70459ZM17.762 8.63525L17.7643 9.13525C17.8429 9.13488 17.9059 9.13792 17.9527 9.141L17.9856 8.64209L18.0185 8.14318C17.9545 8.13895 17.8672 8.13475 17.7596 8.13526L17.762 8.63525ZM17.9856 8.64209L17.9526 9.141C17.9361 9.13991 17.923 9.13815 17.9156 9.13706C17.9118 9.13649 17.9088 9.13599 17.9071 9.1357C17.9055 9.13543 17.9043 9.13522 17.9048 9.13531C17.905 9.13534 17.9049 9.13532 17.9052 9.13538C17.9054 9.13541 17.9057 9.13546 17.906 9.13552C17.9067 9.13563 17.9076 9.13581 17.9088 9.13601C17.9111 9.1364 17.9148 9.13703 17.9193 9.13773C17.9279 9.13907 17.9431 9.14124 17.962 9.14265L17.9993 8.64404L18.0365 8.14543C18.0533 8.14668 18.0662 8.14857 18.0726 8.14955C18.076 8.15008 18.0786 8.15052 18.0797 8.15072C18.0806 8.15087 18.0815 8.15103 18.0802 8.15081C18.0796 8.15069 18.0773 8.15028 18.0745 8.14981C18.0717 8.14933 18.0675 8.14864 18.0625 8.1479C18.0528 8.14646 18.0374 8.14443 18.0186 8.14318L17.9856 8.64209ZM17.9993 8.64404L18.0354 9.14273C18.0521 9.14152 18.0657 9.13974 18.0738 9.13858C18.078 9.13798 18.0814 9.13744 18.0837 9.13708C18.0857 9.13676 18.0876 9.13644 18.0877 9.13642C18.0883 9.13633 18.0874 9.13648 18.0861 9.13667C18.0848 9.13689 18.0823 9.13728 18.079 9.13773C18.0727 9.1386 18.0619 9.13998 18.0481 9.14092L18.0139 8.64209L17.9797 8.14326C17.9634 8.14438 17.9501 8.14604 17.9413 8.14726C17.9368 8.14788 17.9331 8.14845 17.9305 8.14886C17.928 8.14926 17.9259 8.14961 17.9252 8.14971C17.9241 8.1499 17.9248 8.14977 17.9256 8.14965C17.9266 8.14949 17.9289 8.14913 17.9319 8.1487C17.9376 8.14788 17.9488 8.14639 17.9631 8.14535L17.9993 8.64404ZM18.0139 8.64209L18.0469 9.141C18.0935 9.13792 18.1571 9.13487 18.2361 9.13525L18.2385 8.63525L18.2409 8.13526C18.1331 8.13474 18.0452 8.13893 17.9809 8.14318L18.0139 8.64209ZM18.1067 10.0386L18.0817 9.5392L18.0622 9.54017L18.0872 10.0396L18.1121 10.5389L18.1317 10.538L18.1067 10.0386ZM18.0872 10.0396V10.5396H18.0881V10.0396V9.53955H18.0872V10.0396ZM18.0881 10.0396L18.0252 9.54352C18.008 9.54571 17.991 9.54566 17.9748 9.54358L17.9114 10.0396L17.848 10.5355C17.9491 10.5484 18.0509 10.5483 18.151 10.5356L18.0881 10.0396ZM17.9114 10.0396V10.5396H17.9124V10.0396V9.53955H17.9114V10.0396ZM17.9124 10.0396L17.9565 9.54151C17.9462 9.54059 17.9377 9.54015 17.9342 9.53997C17.9305 9.53978 17.9267 9.53963 17.9261 9.5396C17.9234 9.53949 17.9248 9.53953 17.9269 9.53967L17.8938 10.0386L17.8607 10.5375C17.8713 10.5382 17.8802 10.5386 17.8837 10.5387C17.8861 10.5388 17.8851 10.5388 17.8839 10.5387C17.8831 10.5387 17.8813 10.5386 17.8789 10.5384C17.8765 10.5383 17.8728 10.538 17.8682 10.5376L17.9124 10.0396ZM17.8938 10.0386L17.9267 9.53966C17.8887 9.53715 17.8336 9.53532 17.7654 9.53565L17.7678 10.0356L17.7702 10.5356C17.8199 10.5354 17.8509 10.5368 17.8609 10.5375L17.8938 10.0386ZM17.7678 10.0356L17.7653 9.53565C17.6232 9.53637 17.4116 9.54763 17.1437 9.59224L17.2258 10.0854L17.308 10.5787C17.5184 10.5436 17.6765 10.5361 17.7704 10.5356L17.7678 10.0356ZM17.2258 10.0854L17.1437 9.59224C16.6755 9.67023 16.0336 9.84974 15.2857 10.2501L15.5217 10.6909L15.7577 11.1317C16.4035 10.786 16.9405 10.6399 17.308 10.5787L17.2258 10.0854ZM15.5217 10.6909L15.275 10.256L14.9703 10.4289L15.217 10.8638L15.4638 11.2987L15.7684 11.1258L15.5217 10.6909ZM15.217 10.8638L14.9596 10.4351C14.2299 10.8734 13.7129 11.6681 13.3759 12.3765L13.8274 12.5913L14.2789 12.8061C14.5873 12.1578 14.9981 11.5785 15.4745 11.2924L15.217 10.8638ZM13.8274 12.5913L13.3759 12.3765C13.2088 12.7279 13.0895 13.0513 13.0119 13.2857L13.4866 13.4429L13.9612 13.6C14.0295 13.3938 14.134 13.1107 14.2789 12.8061L13.8274 12.5913ZM13.4866 13.4429L13.0119 13.2858C12.973 13.4033 12.9447 13.4987 12.9264 13.5635L13.4075 13.6997L13.8886 13.8359C13.9036 13.7828 13.9276 13.7016 13.9612 13.6L13.4866 13.4429ZM13.4075 13.6997L12.9264 13.5635C12.9264 13.5635 12.9264 13.5635 12.9259 13.565C12.9256 13.5661 12.9249 13.5685 12.9242 13.5712L13.4055 13.7065L13.8868 13.8419C13.8867 13.8424 13.8867 13.8425 13.887 13.8413C13.8873 13.8405 13.8879 13.8382 13.8886 13.8359L13.4075 13.6997ZM13.4055 13.7065H12.9055V18.5093H13.4055H13.9055V13.7065H13.4055ZM13.4055 18.5093L12.9055 18.5092C12.9055 18.5301 12.9015 18.5542 12.8918 18.5799L13.3596 18.7563L13.8275 18.9328C13.8771 18.801 13.9055 18.6576 13.9055 18.5093L13.4055 18.5093ZM13.3596 18.7563L12.9025 18.5538L12.8683 18.631L13.3254 18.8335L13.7826 19.036L13.8168 18.9589L13.3596 18.7563ZM13.3254 18.8335L12.8823 18.6019L11.4145 21.4105L11.8577 21.6421L12.3008 21.8737L13.7686 19.0651L13.3254 18.8335ZM11.8577 21.6421V22.1421H24.1409V21.6421V21.1421H11.8577V21.6421ZM24.1409 21.6421L24.584 21.4105L23.1162 18.6019L22.6731 18.8335L22.23 19.0651L23.6977 21.8737L24.1409 21.6421ZM22.6731 18.8335L23.1163 18.6021C23.1005 18.5717 23.0927 18.5368 23.0944 18.5002L22.595 18.4771L22.0955 18.4539C22.0859 18.6607 22.1292 18.8721 22.2299 19.0649L22.6731 18.8335ZM22.595 18.4771H23.095V13.7056H22.595H22.095V18.4771H22.595ZM22.595 13.7056L23.0763 13.5704C23.0756 13.5676 23.0748 13.565 23.0745 13.564C23.0741 13.5624 23.0741 13.5625 23.0742 13.5627L22.593 13.6987L22.1119 13.8347C22.1126 13.8372 22.1133 13.8396 22.1135 13.8404C22.1139 13.8417 22.1138 13.8414 22.1136 13.8408L22.595 13.7056ZM22.593 13.6987L23.0742 13.5628C23.0557 13.4975 23.0274 13.4022 22.9886 13.285L22.5139 13.4419L22.0392 13.5988C22.0729 13.7007 22.097 13.782 22.1119 13.8347L22.593 13.6987ZM22.5139 13.4419L22.9886 13.2849C22.9109 13.0499 22.7914 12.7273 22.6247 12.3766L22.1731 12.5913L21.7215 12.806C21.8665 13.1109 21.9713 13.3935 22.0392 13.5989L22.5139 13.4419ZM22.1731 12.5913L22.6247 12.3766C22.3076 11.7097 21.8341 10.9722 21.1772 10.5225L20.8948 10.9351L20.6123 11.3476C21.0547 11.6505 21.4339 12.201 21.7215 12.806L22.1731 12.5913ZM20.8948 10.9351L21.1644 10.514L21.0531 10.4427L20.7834 10.8638L20.5138 11.2848L20.6251 11.3561L20.8948 10.9351ZM20.7834 10.8638L21.0406 10.435C20.1535 9.90282 19.391 9.68135 18.8558 9.59224L18.7737 10.0854L18.6916 10.5787C19.1113 10.6486 19.7537 10.8291 20.5262 11.2925L20.7834 10.8638ZM18.7737 10.0854L18.8557 9.59223C18.5878 9.54766 18.3762 9.53634 18.2341 9.53565L18.2317 10.0356L18.2293 10.5356C18.3229 10.5361 18.4809 10.5436 18.6916 10.5787L18.7737 10.0854ZM18.2317 10.0356L18.2341 9.53565C18.1658 9.53533 18.1116 9.53716 18.0737 9.53966L18.1067 10.0386L18.1397 10.5375C18.1497 10.5368 18.1799 10.5354 18.2293 10.5356L18.2317 10.0356Z" fill="#2F3439"/>
</svg>
