<svg width="24" height="24" viewBox="0 0 24 24" fill="none" xmlns="http://www.w3.org/2000/svg">
<path d="M14.2588 18.5078C14.6078 18.3097 15.0576 18.4051 15.2949 18.7393C15.5477 19.0957 15.4638 19.5898 15.1074 19.8428L14.6709 20.1524C13.2148 21.1866 11.3016 21.2768 9.76367 20.4102L9.46192 20.2246L8.91016 19.8545L8.84473 19.8067C8.53594 19.5509 8.46569 19.0973 8.69336 18.7569C8.92148 18.4165 9.36753 18.3097 9.72168 18.4981L9.79102 18.5401L10.3428 18.9092L10.541 19.0313C11.548 19.5983 12.8007 19.5392 13.7539 18.8623L14.1904 18.5518L14.2588 18.5078ZM12.2266 3.00004C12.4101 3.00093 12.6635 3.01594 12.9727 3.06742C13.5929 3.17072 14.4329 3.42067 15.3857 3.99222L15.5576 4.10258C16.3993 4.67622 16.942 5.56634 17.2676 6.25101C17.447 6.62851 17.5751 6.97422 17.6582 7.22562C17.6999 7.35163 17.73 7.45619 17.751 7.53031C17.7614 7.56725 17.7698 7.59773 17.7754 7.61918C17.7781 7.62947 17.7806 7.63821 17.7822 7.64457C17.783 7.6477 17.7837 7.65128 17.7842 7.65336L17.7852 7.65531V7.65726C17.7814 7.65839 17.7296 7.6717 17.0166 7.84574L17.7852 7.65824C17.8 7.71944 17.8086 7.78276 17.8086 7.84574V12.2911L19.6143 15.7471C19.7423 15.9924 19.7332 16.2878 19.5898 16.5245C19.4464 16.761 19.1888 16.9053 18.9121 16.9053H5.08692C4.81036 16.9053 4.5537 16.7608 4.41016 16.5245C4.26677 16.2877 4.2577 15.9924 4.38574 15.7471L6.19239 12.2881V7.84574C6.19239 7.78249 6.19985 7.71871 6.21485 7.65726L6.21582 7.65629V7.65531L6.2168 7.65238C6.2173 7.65037 6.21801 7.64749 6.21875 7.64457C6.22039 7.63812 6.22281 7.62879 6.22559 7.6182C6.2312 7.59686 6.23868 7.56691 6.24903 7.53031C6.26999 7.45622 6.30108 7.35162 6.34278 7.22562C6.42599 6.97425 6.55384 6.62851 6.7334 6.25101C7.08076 5.52083 7.67516 4.55667 8.61524 3.99222L8.9668 3.79301C9.77452 3.36071 10.4855 3.15781 11.0283 3.06742C11.3373 3.01599 11.59 3.00094 11.7734 3.00004C11.865 2.99959 11.9397 3.00321 11.9951 3.00687C11.9967 3.007 11.9985 3.00775 12 3.00785C12.0016 3.00773 12.0032 3.00698 12.0049 3.00687C12.0603 3.00321 12.135 2.9996 12.2266 3.00004ZM12.1094 4.58695H12.0967C12.0325 4.59483 11.9675 4.59487 11.9033 4.58695H11.8906C11.8708 4.58564 11.8337 4.58377 11.7813 4.58402C11.6758 4.58454 11.5076 4.59239 11.2881 4.62894C10.9052 4.6927 10.3601 4.84294 9.71289 5.18949L9.42969 5.34965C8.891 5.67319 8.4651 6.29682 8.16309 6.93168C8.01827 7.23621 7.91351 7.51789 7.84571 7.72269C7.81398 7.81854 7.79083 7.89716 7.77539 7.95121V12.4834C7.77525 12.6108 7.74454 12.7367 7.68555 12.8496L6.39356 15.3223H17.6055L16.3135 12.8496C16.2477 12.7238 16.2185 12.5846 16.2246 12.4473V7.95121C16.2092 7.89717 16.186 7.8186 16.1543 7.72269C16.0866 7.51796 15.9826 7.23612 15.8379 6.93168C15.5738 6.3762 15.2145 5.82903 14.7676 5.48441L14.5713 5.34965C13.8001 4.88702 13.1504 4.70184 12.7129 4.62894C12.4936 4.59243 12.3252 4.58456 12.2197 4.58402C12.1671 4.58377 12.1292 4.58564 12.1094 4.58695Z" fill="#2F3439"/>
</svg>
