<svg width="24" height="24" viewBox="0 0 24 24" fill="none" xmlns="http://www.w3.org/2000/svg">
<path d="M8.13488 15.865C8.48238 16.2125 9.04579 16.2125 9.39329 15.865L12 13.2583L14.6067 15.865C14.9542 16.2125 15.5176 16.2125 15.8651 15.865C16.2126 15.5175 16.2126 14.9541 15.8651 14.6066L13.2584 11.9999L15.8651 9.39317C16.2126 9.04567 16.2126 8.48226 15.8651 8.13476C15.5176 7.78726 14.9542 7.78726 14.6067 8.13476L12 10.7415L9.39329 8.13476C9.04579 7.78726 8.48238 7.78726 8.13488 8.13476C7.78738 8.48226 7.78738 9.04567 8.13488 9.39317L10.7416 11.9999L8.13488 14.6066C7.78738 14.9541 7.78738 15.5175 8.13488 15.865ZM12 20.9885C10.7566 20.9885 9.58805 20.7526 8.49443 20.2807C7.40081 19.8088 6.44951 19.1683 5.64053 18.3593C4.83155 17.5504 4.19111 16.5991 3.71921 15.5055C3.2473 14.4118 3.01135 13.2433 3.01135 11.9999C3.01135 10.7564 3.2473 9.58792 3.71921 8.49431C4.19111 7.40069 4.83155 6.44939 5.64053 5.64041C6.44951 4.83143 7.40081 4.19099 8.49443 3.71909C9.58805 3.24718 10.7566 3.01123 12 3.01123C13.2434 3.01123 14.412 3.24718 15.5056 3.71909C16.5992 4.19099 17.5505 4.83143 18.3595 5.64041C19.1684 6.44939 19.8089 7.40069 20.2808 8.49431C20.7527 9.58792 20.9886 10.7564 20.9886 11.9999C20.9886 13.2433 20.7527 14.4118 20.2808 15.5055C19.8089 16.5991 19.1684 17.5504 18.3595 18.3593C17.5505 19.1683 16.5992 19.8088 15.5056 20.2807C14.412 20.7526 13.2434 20.9885 12 20.9885ZM12 19.1908C14.0075 19.1908 15.7078 18.4942 17.1011 17.1009C18.4943 15.7077 19.1909 14.0073 19.1909 11.9999C19.1909 9.99241 18.4943 8.29206 17.1011 6.89882C15.7078 5.50558 14.0075 4.80896 12 4.80896C9.99254 4.80896 8.29218 5.50558 6.89894 6.89882C5.5057 8.29206 4.80908 9.99241 4.80908 11.9999C4.80908 14.0073 5.5057 15.7077 6.89894 17.1009C8.29218 18.4942 9.99254 19.1908 12 19.1908Z" fill="#C5CACF"/>
</svg>
