<svg width="18" height="18" viewBox="0 0 18 18" fill="none" xmlns="http://www.w3.org/2000/svg">
<path d="M9 2.25C12.7279 2.25001 15.75 5.2721 15.75 9C15.75 12.7279 12.7279 15.75 9 15.75C5.2721 15.75 2.25001 12.7279 2.25 9C2.25 5.27209 5.27209 2.25 9 2.25ZM9 12C8.58579 12 8.25 12.3358 8.25 12.75C8.25 13.1642 8.58579 13.5 9 13.5C9.41421 13.5 9.75 13.1642 9.75 12.75C9.75 12.3358 9.41421 12 9 12ZM9 4.5C8.58579 4.5 8.25 4.83579 8.25 5.25V10.5C8.25 10.9142 8.58579 11.25 9 11.25C9.41421 11.25 9.75 10.9142 9.75 10.5V5.25C9.75 4.83579 9.41421 4.5 9 4.5Z" fill="#FF6969"/>
</svg>
