<svg width="24" height="24" viewBox="0 0 42 41" fill="none" xmlns="http://www.w3.org/2000/svg">
    <path d="M21 0C9.684 0 0.5 9.184 0.5 20.5C0.5 31.816 9.684 41 21 41C32.316 41 41.5 31.816 41.5 20.5C41.5 9.184 32.316 0 21 0ZM21 8.2C24.9565 8.2 28.175 11.4185 28.175 15.375C28.175 19.3315 24.9565 22.55 21 22.55C17.0435 22.55 13.825 19.3315 13.825 15.375C13.825 11.4185 17.0435 8.2 21 8.2ZM21 36.9C16.8385 36.9 11.9185 35.219 8.413 30.996C11.8775 28.29 16.244 26.65 21 26.65C25.756 26.65 30.1225 28.29 33.587 30.996C30.0815 35.219 25.1615 36.9 21 36.9Z" fill="#DBDBDB"/>
</svg>
