<svg width="37" height="36" viewBox="0 0 37 36" fill="none" xmlns="http://www.w3.org/2000/svg">
<path d="M25.2433 10.9717C25.9179 10.4216 26.9132 10.4612 27.5421 11.0898L27.6602 11.2207C28.1735 11.8504 28.1735 12.759 27.6602 13.3887L27.5421 13.5195L15.6485 25.4131L9.4581 19.2226C8.78751 18.5517 8.7873 17.4638 9.4581 16.793C10.1289 16.1222 11.2169 16.1224 11.8878 16.793L15.6485 20.5537L25.1124 11.0898L25.2433 10.9717ZM9.6749 17.3916C9.66863 17.4017 9.66227 17.4116 9.65634 17.4219C9.66228 17.4116 9.66862 17.4017 9.6749 17.3916ZM9.76279 17.2676C9.75586 17.2761 9.74992 17.2853 9.74326 17.2939C9.77413 17.2541 9.80728 17.2153 9.84384 17.1787L9.76279 17.2676ZM27.3067 11.6601C27.3267 11.6905 27.3455 11.7213 27.3624 11.7529C27.3274 11.6873 27.2858 11.6238 27.2374 11.5644L27.3067 11.6601Z" fill="#008EFF"/>
</svg>
