<svg width="18" height="18" viewBox="0 0 18 18" fill="none" xmlns="http://www.w3.org/2000/svg">
<path id="Subtract" d="M9 0C13.9705 1.90699e-05 18 4.02947 18 9C18 13.9705 13.9705 18 9 18C4.02947 18 1.90705e-05 13.9705 0 9C0 4.02946 4.02946 0 9 0ZM13.9434 5.70801C13.5969 5.36163 13.0484 5.34053 12.6768 5.64355L12.6045 5.70801L7.3916 10.9209L5.32031 8.84961C4.9508 8.4801 4.35103 8.48023 3.98145 8.84961C3.61192 9.21918 3.61189 9.81892 3.98145 10.1885L7.17969 13.3857L7.3916 13.5977L7.60449 13.3857L13.9434 7.04688L14.0078 6.97461C14.2906 6.62774 14.2906 6.12715 14.0078 5.78027L13.9434 5.70801ZM13.7305 6.83398L7.3916 13.1738L5.79199 11.5742L7.3916 13.1729L13.7305 6.83398ZM4.05371 9.27051C4.05505 9.26727 4.05622 9.26396 4.05762 9.26074L4.11133 9.16309C4.0886 9.19744 4.06918 9.23331 4.05371 9.27051Z" fill="#008EFF"/>
</svg>
