<svg width="27" height="28" viewBox="0 0 27 28" fill="none" xmlns="http://www.w3.org/2000/svg">
<path d="M13.5 0.5C20.9558 0.500029 27 6.5442 27 14C27 21.4558 20.9558 27.5 13.5 27.5C6.0442 27.5 2.88635e-05 21.4558 0 14C0 6.54419 6.04419 0.5 13.5 0.5ZM20.9141 9.0625C20.3943 8.54306 19.5721 8.51106 19.0146 8.96582L18.9072 9.0625L11.0869 16.8828L7.97949 13.7754C7.42514 13.221 6.52604 13.221 5.97168 13.7754C5.41791 14.3296 5.41791 15.228 5.97168 15.7822L11.0869 20.8975L20.9141 11.0703L21.0117 10.9629C21.4361 10.4427 21.4358 9.69132 21.0117 9.1709L20.9141 9.0625ZM20.5957 10.752L11.0869 20.2607L8.68848 17.8613L11.0869 20.2598L20.5957 10.751C20.6186 10.7281 20.64 10.7042 20.6602 10.6797C20.6399 10.7044 20.6187 10.7289 20.5957 10.752ZM7.36523 13.8916C7.37617 13.8964 7.38668 13.902 7.39746 13.9072C7.38666 13.9021 7.37617 13.8964 7.36523 13.8916Z" fill="#008EFF"/>
</svg>
