<svg width="28" height="28" viewBox="0 0 28 28" fill="none" xmlns="http://www.w3.org/2000/svg">
<path id="Subtract" d="M14 0.5C21.4558 0.500029 27.5 6.5442 27.5 14C27.5 21.4558 21.4558 27.5 14 27.5C6.5442 27.5 0.500029 21.4558 0.5 14C0.5 6.54419 6.54419 0.5 14 0.5ZM21.4141 9.0625C20.8943 8.54306 20.0721 8.51106 19.5146 8.96582L19.4072 9.0625L11.5869 16.8828L8.47949 13.7754C7.92514 13.221 7.02604 13.221 6.47168 13.7754C5.91791 14.3296 5.91791 15.228 6.47168 15.7822L11.5869 20.8975L21.4141 11.0703L21.5117 10.9629C21.9361 10.4427 21.9358 9.69132 21.5117 9.1709L21.4141 9.0625ZM21.0957 10.752L11.5869 20.2607L9.18848 17.8613L11.5869 20.2598L21.0957 10.751C21.1186 10.7281 21.14 10.7042 21.1602 10.6797C21.1399 10.7044 21.1187 10.7289 21.0957 10.752ZM7.86523 13.8916C7.87617 13.8964 7.88668 13.902 7.89746 13.9072C7.88666 13.9021 7.87617 13.8964 7.86523 13.8916Z" fill="#DDE0E2"/>
</svg>
