<svg width="27" height="21" viewBox="0 0 27 21" fill="none" xmlns="http://www.w3.org/2000/svg">
<path d="M24.75 0.5H7.875C7.09875 0.5 6.49125 0.888889 6.08625 1.47778L0 10.5L6.08625 19.5111C6.49125 20.1 7.09875 20.5 7.875 20.5H24.75C25.9875 20.5 27 19.5 27 18.2778V2.72222C27 1.5 25.9875 0.5 24.75 0.5ZM21.375 14.4889L19.7887 16.0556L15.75 12.0667L11.7113 16.0556L10.125 14.4889L14.1637 10.5L10.125 6.51111L11.7113 4.94444L15.75 8.93333L19.7887 4.94444L21.375 6.51111L17.3363 10.5L21.375 14.4889Z" fill="#EBF6FF"/>
</svg>
