<svg width="36" height="36" viewBox="0 0 36 36" fill="none" xmlns="http://www.w3.org/2000/svg">
<path d="M28.1677 19.8172V16.1673C28.1677 10.5518 23.6158 6 18.0003 6C12.3848 6 7.83301 10.5518 7.83301 16.1673V19.8172C7.83301 25.4327 12.3848 29.9845 18.0003 29.9845C18.0003 29.9845 19.492 30.0954 20.8681 29.7238C22.0996 29.3912 23.7358 28.4203 23.7358 28.4203" stroke="#2F3439" stroke-width="2.08561" stroke-linecap="round" stroke-linejoin="round"/>
<path d="M17.7392 9.6499C21.4828 9.6499 24.5174 12.6845 24.5174 16.4281V19.0351C24.5174 22.7788 21.4828 25.8134 17.7392 25.8134C13.9955 25.8134 10.9609 22.7788 10.9609 19.0351V15.3853" stroke="#2F3439" stroke-width="2.08561" stroke-linecap="round" stroke-linejoin="round"/>
<path d="M20.8682 18.5135V17.4707C20.8682 15.7449 19.4656 14.3423 17.7397 14.3423C16.0139 14.3423 14.6113 15.7449 14.6113 17.4707V18.5135C14.6113 20.2393 16.0139 21.6419 17.7397 21.6419C19.4656 21.6419 19.3039 21.3812 19.3039 21.3812" stroke="#2F3439" stroke-width="2.08561" stroke-linecap="round" stroke-linejoin="round"/>
</svg>
