<svg width="18" height="19" viewBox="0 0 18 19" fill="none" xmlns="http://www.w3.org/2000/svg">
<rect x="1.5" y="2.25195" width="15" height="15" rx="7.5" fill="#51B13A"/>
<path d="M11.5 8.48614C11.5 8.33397 11.4381 8.20946 11.3065 8.10571L9.44892 6.41105C9.32508 6.30037 9.17802 6.25195 9 6.25195C8.81424 6.25195 8.66718 6.30729 8.54334 6.41105L6.68576 8.10571C6.56192 8.20255 6.5 8.33397 6.5 8.48614C6.5 8.63832 6.56192 8.76974 6.67802 8.88041C6.79412 8.99108 6.94118 9.0395 7.11145 9.0395C7.28173 9.0395 7.43653 8.98417 7.55263 8.88041L8.37306 8.15413L8.37306 12.7124C8.37306 12.8646 8.43498 12.996 8.55882 13.0998C8.67492 13.1966 8.82198 13.252 9 13.252C9.17802 13.252 9.32508 13.2035 9.44892 13.0998C9.57276 12.996 9.63467 12.8646 9.63467 12.7124L9.63467 8.15413L10.4551 8.88041C10.5098 8.93186 10.576 8.97257 10.6492 8.99996C10.7225 9.02735 10.8014 9.04082 10.8808 9.0395C11.0511 9.0395 11.2059 8.98417 11.322 8.88041C11.4381 8.77666 11.5 8.63832 11.5 8.48614Z" fill="white"/>
</svg>
