<svg width="36" height="36" viewBox="0 0 36 36" fill="none" xmlns="http://www.w3.org/2000/svg">
<path d="M19.9077 8C20.46 8 20.9077 8.44772 20.9077 9C20.9077 9.55228 20.46 10 19.9077 10H9.90771V26H19.9077C20.46 26 20.9077 26.4477 20.9077 27C20.9077 27.5523 20.46 28 19.9077 28H8.90771C8.35548 27.9999 7.90771 27.5522 7.90771 27V9C7.90771 8.48236 8.3011 8.05626 8.80518 8.00488L8.90771 8H19.9077ZM21.9214 12.4473C22.2875 12.0812 22.8665 12.0585 23.2593 12.3789L23.3354 12.4473L27.6274 16.7393C28.247 17.3596 28.2474 18.3652 27.6274 18.9854L23.3354 23.2764L23.2593 23.3457C22.8666 23.6656 22.2874 23.6421 21.9214 23.2764C21.5554 22.9102 21.5327 22.3312 21.853 21.9385L21.9214 21.8623L24.9224 18.8613H13.7661C13.214 18.8611 12.7661 18.4135 12.7661 17.8613C12.7662 17.3093 13.2141 16.8615 13.7661 16.8613H24.9224L21.9214 13.8613L21.853 13.7852C21.5327 13.3924 21.5554 12.8134 21.9214 12.4473Z" fill="black"/>
</svg>
