<svg width="36" height="36" viewBox="0 0 36 36" fill="none" xmlns="http://www.w3.org/2000/svg">
<path d="M15.2174 6.7002C16.0656 6.70037 16.7535 7.38812 16.7535 8.23633C16.7535 8.4374 16.7126 8.62863 16.6422 8.80469L16.6686 8.9043L17.0563 10.7383C17.4054 10.7079 17.7104 10.6959 17.9567 10.6953C17.9712 10.6953 17.9855 10.6963 17.9996 10.6963C18.0141 10.6963 18.0288 10.6953 18.0436 10.6953C18.3262 10.696 18.6859 10.711 19.1012 10.7529L19.4899 8.91992C19.4968 8.88735 19.506 8.85562 19.5153 8.82422C19.4443 8.64747 19.404 8.45496 19.4039 8.25293C19.4039 7.40461 20.0917 6.7168 20.9401 6.7168C21.7881 6.71712 22.4762 7.40481 22.4762 8.25293C22.476 8.71908 22.2664 9.1352 21.9381 9.41699C21.9368 9.42375 21.9366 9.43074 21.9352 9.4375L21.5455 11.2773C22.4666 11.5889 23.4518 12.0636 24.3883 12.7871H24.3893C25.7044 13.8032 26.3205 15.4011 26.6217 16.5723C26.7782 17.181 26.8638 17.7328 26.9108 18.1318C26.9343 18.3317 26.9484 18.4962 26.9567 18.6133C26.9608 18.6715 26.9637 18.7191 26.9655 18.7529C26.9663 18.7695 26.967 18.7837 26.9674 18.7939C26.9676 18.7987 26.9682 18.8034 26.9684 18.8066V23.9883C26.9684 24.1272 27.0022 24.3601 27.0533 24.6074C27.0767 24.7201 27.1002 24.8199 27.1178 24.8906C27.1264 24.9253 27.1336 24.9529 27.1383 24.9707C27.1406 24.9792 27.1422 24.9864 27.1432 24.9902L27.1442 24.9932L27.1696 25.1084C27.2666 25.6828 26.915 26.2489 26.3414 26.4072C25.7293 26.5759 25.0963 26.2165 24.9274 25.6045L26.0358 25.2988L24.9264 25.6035V25.6016L24.9254 25.5986C24.9247 25.5962 24.9235 25.5926 24.9225 25.5889C24.9203 25.5809 24.9172 25.5699 24.9137 25.5566C24.9065 25.5294 24.8969 25.4908 24.8854 25.4443C24.8623 25.3514 24.8321 25.221 24.8014 25.0723C24.7442 24.7955 24.6686 24.3729 24.6686 23.9883V18.8691C24.6676 18.8495 24.6657 18.8175 24.6627 18.7754C24.6567 18.6898 24.6455 18.5611 24.6266 18.4004C24.5885 18.0763 24.5188 17.6303 24.3942 17.1455C24.149 16.1922 23.738 15.2706 23.111 14.7139L22.983 14.6074C22.0215 13.8644 20.9728 13.4589 20.0446 13.2393C19.9829 13.2356 19.9203 13.229 19.858 13.2158C19.7906 13.2015 19.7259 13.1814 19.6637 13.1572C19.5538 13.1363 19.4465 13.1157 19.3414 13.0996C19.0583 13.0561 18.7974 13.0308 18.568 13.0156C18.5171 13.0171 18.4657 13.0162 18.4137 13.0107V13.0098C18.4111 13.0095 18.4069 13.0101 18.402 13.0098C18.3859 13.0085 18.3576 13.0061 18.319 13.0039C18.2473 12.9999 18.1385 12.9964 17.9996 12.9961C17.861 12.9964 17.7529 12.9999 17.6813 13.0039C17.6425 13.0061 17.6145 13.0085 17.5983 13.0098C17.5928 13.0102 17.5883 13.0096 17.5856 13.0098L17.5865 13.0107H17.5856L17.5846 13.0098L17.5826 13.0107C17.5307 13.016 17.4791 13.0172 17.4283 13.0156C17.1999 13.0308 16.9404 13.0564 16.6588 13.0996C16.6231 13.1051 16.5868 13.1121 16.5504 13.1182C16.4715 13.1533 16.3883 13.1816 16.3004 13.2002C16.2031 13.2208 16.1057 13.2279 16.0104 13.2256C15.1416 13.4252 14.163 13.7875 13.2467 14.4375L13.0172 14.6074C12.3176 15.1479 11.8676 16.1288 11.6061 17.1455C11.4815 17.6303 11.4118 18.0763 11.3737 18.4004C11.3548 18.561 11.3436 18.6898 11.3375 18.7754C11.3346 18.8175 11.3327 18.8495 11.3317 18.8691V23.9883C11.3317 24.3728 11.256 24.7955 11.1989 25.0723C11.1681 25.2209 11.1379 25.3514 11.1149 25.4443C11.1034 25.4908 11.0927 25.5294 11.0856 25.5566C11.0821 25.5698 11.0789 25.581 11.0768 25.5889C11.0758 25.5925 11.0754 25.5962 11.0748 25.5986L11.0739 25.6016V25.6035H11.0729C11.0677 25.6022 10.9942 25.5826 9.96448 25.2988L11.0729 25.6045C10.904 26.2164 10.2709 26.5758 9.65881 26.4072C9.04661 26.2384 8.68739 25.6054 8.85608 24.9932V24.9902C8.85717 24.9864 8.8597 24.9792 8.86194 24.9707C8.86663 24.9529 8.87388 24.9252 8.88245 24.8906C8.89999 24.8199 8.9236 24.7201 8.9469 24.6074C8.998 24.3602 9.03088 24.1272 9.03088 23.9883V18.8525C9.0309 18.8401 9.03146 18.8268 9.03186 18.8145L10.1813 18.8525L9.03186 18.8135V18.8066C9.03202 18.8034 9.03264 18.7987 9.03284 18.7939C9.03326 18.7837 9.03395 18.7695 9.03479 18.7529C9.0365 18.7191 9.0385 18.6715 9.0426 18.6133C9.05087 18.4962 9.06502 18.3316 9.0885 18.1318C9.13543 17.7328 9.22204 17.1809 9.37854 16.5723C9.66094 15.4742 10.2201 14.0013 11.3727 12.9844L11.611 12.7871C12.5991 12.0237 13.641 11.5363 14.6051 11.2266L14.2233 9.42188L14.2194 9.40234C13.8906 9.12055 13.6815 8.70307 13.6813 8.23633C13.6813 7.38802 14.3691 6.70021 15.2174 6.7002ZM20.6334 20.792C21.0462 20.7604 21.4063 21.0696 21.4381 21.4824L20.691 21.54C21.3685 21.4878 21.4322 21.4835 21.4381 21.4834V21.4844L21.4391 21.4863V21.498C21.4394 21.5036 21.4398 21.5099 21.4401 21.5166C21.4406 21.5306 21.4411 21.5476 21.441 21.5664C21.441 21.6041 21.4394 21.6518 21.4342 21.707C21.4238 21.8173 21.3988 21.9626 21.3424 22.126C21.2406 22.4206 21.042 22.7569 20.6803 23.043L20.5153 23.1621C20.2751 23.3202 19.9913 23.4093 19.7584 23.4648C19.5137 23.5231 19.2596 23.5589 19.0387 23.5811C18.8155 23.6035 18.6121 23.6145 18.4655 23.6191C18.3918 23.6215 18.3306 23.6217 18.2877 23.6221C18.2665 23.6223 18.2491 23.6231 18.2369 23.623H18.2067C18.1944 23.623 18.1771 23.6223 18.1559 23.6221C18.1129 23.6217 18.0517 23.6215 17.9781 23.6191C17.8315 23.6145 17.6279 23.6035 17.4049 23.5811C17.1839 23.5588 16.9298 23.5232 16.6852 23.4648C16.4523 23.4093 16.1694 23.3202 15.9293 23.1621H15.9283C15.4604 22.8534 15.2175 22.4626 15.1012 22.126C15.0448 21.9626 15.0198 21.8173 15.0094 21.707C15.0042 21.6518 15.0026 21.6041 15.0026 21.5664C15.0025 21.5477 15.003 21.5306 15.0035 21.5166C15.0038 21.5099 15.0042 21.5036 15.0045 21.498C15.0047 21.4953 15.0044 21.4918 15.0045 21.4893L15.0055 21.4863V21.4834C15.0055 21.483 15.0057 21.4826 15.7262 21.5381L15.0055 21.4824C15.0373 21.0695 15.3983 20.7603 15.8112 20.792C16.2237 20.8239 16.5319 21.1842 16.5006 21.5967L16.5016 21.5957V21.5859C16.5018 21.5825 16.5024 21.5788 16.5026 21.5762V21.5664C16.5036 21.5777 16.5078 21.6038 16.5192 21.6367C16.5388 21.6935 16.5899 21.801 16.7535 21.9092H16.7545C16.7795 21.9256 16.8641 21.9656 17.0328 22.0059C17.19 22.0433 17.3729 22.0705 17.5553 22.0889C17.7354 22.107 17.9031 22.1152 18.026 22.1191C18.0869 22.1211 18.1366 22.1218 18.1696 22.1221C18.1855 22.1222 18.198 22.123 18.2057 22.123H18.2379C18.2456 22.1231 18.2587 22.1222 18.275 22.1221C18.3079 22.1218 18.357 22.1211 18.4176 22.1191C18.5404 22.1152 18.7081 22.107 18.8883 22.0889C19.0707 22.0705 19.2537 22.0433 19.4108 22.0059C19.5792 21.9657 19.6648 21.9257 19.6901 21.9092C19.8536 21.8011 19.9047 21.6936 19.9244 21.6367C19.9358 21.6039 19.9399 21.5777 19.941 21.5664V21.5723C19.9235 21.1701 20.2291 20.8233 20.6334 20.792ZM14.7838 18.2266C15.3373 18.2268 15.7858 18.6759 15.7858 19.2295C15.7854 19.7827 15.3371 20.2312 14.7838 20.2314C14.2303 20.2314 13.7812 19.7829 13.7809 19.2295C13.7809 18.6758 14.2301 18.2266 14.7838 18.2266ZM21.65 18.2266C22.2036 18.2268 22.652 18.6759 22.652 19.2295C22.6516 19.7828 22.2033 20.2313 21.65 20.2314C21.0966 20.2314 20.6475 19.7829 20.6471 19.2295C20.6471 18.6758 21.0963 18.2266 21.65 18.2266ZM14.7838 20.0322C14.7904 20.0322 14.7968 20.0304 14.8033 20.0303C14.7968 20.0304 14.7903 20.0312 14.7838 20.0312C14.7563 20.0312 14.7286 20.0301 14.7018 20.0273L14.7838 20.0322ZM21.65 20.0322C21.6566 20.0322 21.6631 20.0304 21.6696 20.0303C21.6631 20.0304 21.6566 20.0312 21.65 20.0312C21.6225 20.0312 21.5948 20.0301 21.568 20.0273L21.65 20.0322ZM15.5856 19.2285C15.5856 19.2561 15.5844 19.2837 15.5817 19.3105L15.5865 19.2295C15.5865 19.2231 15.5847 19.2163 15.5846 19.21C15.5847 19.2161 15.5856 19.2223 15.5856 19.2285ZM22.4518 19.2285C22.4518 19.2561 22.4506 19.2837 22.4479 19.3105L22.4528 19.2295C22.4528 19.2231 22.451 19.2163 22.4508 19.21C22.4509 19.2161 22.4518 19.2223 22.4518 19.2285ZM13.9811 8.23633L13.9879 8.3623C13.9919 8.4013 13.998 8.4397 14.0055 8.47754C13.99 8.39928 13.9811 8.31817 13.9811 8.23535V8.23633ZM22.1608 8.42871C22.1633 8.4121 22.1678 8.39575 22.1696 8.37891L22.1754 8.25293L22.1744 8.25195C22.1744 8.31205 22.1691 8.37095 22.1608 8.42871Z" fill="#2F3439"/>
</svg>
