<svg width="24" height="24" viewBox="0 0 24 24" fill="none" xmlns="http://www.w3.org/2000/svg">
<g id="faceid">
<rect id="Rectangle 124" x="1" y="1" width="22" height="22" rx="4" stroke="#2F3439" stroke-width="2" stroke-linejoin="round" stroke-dasharray="8 32"/>
<path id="Union" d="M16.6514 15.1699C17.0716 14.9928 17.5665 15.1596 17.79 15.5684C18.0133 15.977 17.8864 16.483 17.5107 16.7412L17.4316 16.79H17.4307C17.43 16.7904 17.4287 16.7915 17.4277 16.792C17.4259 16.793 17.4237 16.7944 17.4209 16.7959C17.4145 16.7994 17.405 16.8044 17.3936 16.8105C17.3706 16.8228 17.3377 16.8404 17.2959 16.8623C17.2121 16.9061 17.0914 16.9674 16.9424 17.041C16.645 17.188 16.229 17.3842 15.7539 17.5811C14.841 17.9592 13.5717 18.4004 12.5 18.4004C11.4283 18.4004 10.159 17.9592 9.24609 17.5811C8.77096 17.3842 8.355 17.188 8.05762 17.041C7.90855 16.9674 7.78793 16.9061 7.7041 16.8623C7.66227 16.8404 7.6294 16.8228 7.60645 16.8105C7.59496 16.8044 7.58551 16.7994 7.5791 16.7959C7.57628 16.7944 7.57405 16.793 7.57227 16.792C7.57132 16.7915 7.56995 16.7904 7.56934 16.79H7.56836C7.13238 16.5516 6.97172 16.0044 7.20996 15.5684C7.44841 15.1324 7.9956 14.9717 8.43164 15.21L8.43262 15.2109C8.43343 15.2114 8.43488 15.212 8.43652 15.2129C8.44061 15.2151 8.44713 15.2189 8.45605 15.2236C8.47406 15.2333 8.50181 15.2476 8.53809 15.2666C8.61109 15.3048 8.71906 15.3608 8.85449 15.4277C9.12614 15.562 9.50568 15.7409 9.93555 15.9189C10.8332 16.2908 11.8144 16.5996 12.5 16.5996C13.1856 16.5996 14.1668 16.2908 15.0645 15.9189C15.4943 15.7409 15.8739 15.562 16.1455 15.4277C16.2809 15.3608 16.3889 15.3048 16.4619 15.2666C16.4982 15.2476 16.5259 15.2333 16.5439 15.2236C16.5529 15.2189 16.5594 15.2151 16.5635 15.2129C16.5651 15.212 16.5666 15.2114 16.5674 15.2109L16.5684 15.21L16.6514 15.1699ZM12.0654 8.18262C12.4889 7.98838 12.9857 8.1498 13.2168 8.54297L13.2588 8.625L14.4736 11.2754C14.6184 11.5914 14.5691 11.9622 14.3457 12.2285L13.1865 13.6094C12.867 13.99 12.2986 14.0401 11.918 13.7207C11.5374 13.4012 11.4882 12.8328 11.8076 12.4521L12.5996 11.5068L11.623 9.375L11.5879 9.29004C11.4407 8.85843 11.6421 8.37696 12.0654 8.18262ZM8 6.09961C8.49706 6.09961 8.90039 6.50294 8.90039 7V9C8.90039 9.49706 8.49706 9.90039 8 9.90039C7.50294 9.90039 7.09961 9.49706 7.09961 9V7C7.09961 6.50294 7.50294 6.09961 8 6.09961ZM17 6.09961C17.4971 6.09961 17.9004 6.50294 17.9004 7V9C17.9004 9.49706 17.4971 9.90039 17 9.90039C16.5029 9.90039 16.0996 9.49706 16.0996 9V7C16.0996 6.50294 16.5029 6.09961 17 6.09961Z" fill="#008EFF"/>
</g>
</svg>
