<svg width="36" height="36" viewBox="0 0 36 36" fill="none" xmlns="http://www.w3.org/2000/svg">
<path d="M19 6.5C21.7614 6.5 24 8.73858 24 11.5V13.5H25L25.2568 13.5068C27.8989 13.6405 30 15.8247 30 18.5V24.5C30 27.1753 27.8989 29.3595 25.2568 29.4932L25 29.5H11L10.7432 29.4932C8.10111 29.3595 6 27.1753 6 24.5V18.5C6 15.8247 8.10111 13.6405 10.7432 13.5068L11 13.5V11.5C11 8.73858 13.2386 6.5 16 6.5H19ZM11 15.5C9.34315 15.5 8 16.8431 8 18.5V24.5C8 26.1569 9.34315 27.5 11 27.5H25C26.6569 27.5 28 26.1569 28 24.5V18.5C28 16.8431 26.6569 15.5 25 15.5H11ZM16 8.5C14.3431 8.5 13 9.84315 13 11.5V13.5H22V11.5C22 9.84315 20.6569 8.5 19 8.5H16Z" fill="#2F3439"/>
<path d="M13 20.5C13.5523 20.5 14 20.9477 14 21.5C14 22.0523 13.5523 22.5 13 22.5C12.4477 22.5 12 22.0523 12 21.5C12 20.9477 12.4477 20.5 13 20.5ZM18 20.5C18.5523 20.5 19 20.9477 19 21.5C19 22.0523 18.5523 22.5 18 22.5C17.4477 22.5 17 22.0523 17 21.5C17 20.9477 17.4477 20.5 18 20.5ZM23 20.5C23.5523 20.5 24 20.9477 24 21.5C24 22.0523 23.5523 22.5 23 22.5C22.4477 22.5 22 22.0523 22 21.5C22 20.9477 22.4477 20.5 23 20.5Z" fill="#008EFF"/>
</svg>
